0
SECTION
2
HEADER
9
$INSUNITS
70
4
9
$ACADVER
1
AC1014
9
$HANDSEED
5
FFFF
0
ENDSEC
0
SECTION
2
TABLES
0
TABLE
2
VPORT
5
8
100
AcDbSymbolTable
0
ENDTAB
0
TABLE
2
LTYPE
5
5
100
AcDbSymbolTable
0
LTYPE
5
14
100
AcDbSymbolTableRecord
100
AcDbLinetypeTableRecord
2
BYBLOCK
70
0
0
LTYPE
5
15
100
AcDbSymbolTableRecord
100
AcDbLinetypeTableRecord
2
BYLAYER
70
0
0
ENDTAB
0
TABLE
2
LAYER
5
2
100
AcDbSymbolTable
70
2
0
LAYER
5
50
100
AcDbSymbolTableRecord
100
AcDbLayerTableRecord
2
0
70
0
6
CONTINUOUS
0
ENDTAB
0
TABLE
2
STYLE
5
3
100
AcDbSymbolTable
70
1
0
STYLE
5
11
100
AcDbSymbolTableRecord
100
AcDbTextStyleTableRecord
2
STANDARD
70
0
0
ENDTAB
0
TABLE
2
VIEW
5
6
100
AcDbSymbolTable
70
0
0
ENDTAB
0
TABLE
2
UCS
5
7
100
AcDbSymbolTable
70
0
0
ENDTAB
0
TABLE
2
APPID
5
9
100
AcDbSymbolTable
70
2
0
APPID
5
12
100
AcDbSymbolTableRecord
100
AcDbRegAppTableRecord
2
ACAD
70
0
0
ENDTAB
0
TABLE
2
DIMSTYLE
5
A
100
AcDbSymbolTable
70
1
0
ENDTAB
0
TABLE
2
BLOCK_RECORD
5
1
100
AcDbSymbolTable
70
1
0
BLOCK_RECORD
5
1F
100
AcDbSymbolTableRecord
100
AcDbBlockTableRecord
2
*MODEL_SPACE
0
BLOCK_RECORD
5
1B
100
AcDbSymbolTableRecord
100
AcDbBlockTableRecord
2
*PAPER_SPACE
0
ENDTAB
0
ENDSEC
0
SECTION
2
BLOCKS
0
BLOCK
5
20
100
AcDbEntity
100
AcDbBlockBegin
2
*MODEL_SPACE
0
ENDBLK
5
21
100
AcDbEntity
100
AcDbBlockEnd
0
BLOCK
5
1C
100
AcDbEntity
100
AcDbBlockBegin
2
*PAPER_SPACE
0
ENDBLK
5
1D
100
AcDbEntity
100
AcDbBlockEnd
0
ENDSEC
0
SECTION
2
ENTITIES
0
LWPOLYLINE
5
100
100
AcDbEntity
8
0
100
AcDbPolyline
90
17
70
1
43
0.0
10
-30.321692238734066
20
-34.540058682094568
10
-23.334083710659428
20
-34.540058682094568
42
0.17632698070846556
10
-20.12014566222674
20
-33.370280897689462
10
-10.082123903134605
20
-24.947380541885764
42
0.22169466264294094
10
-6.5099999999999962
20
-17.286936110695976
10
-6.5099999999999998
20
47.142398210202757
10
-6.5099999999999998
20
52.003690338231635
42
0.29521202086493858
10
-9.4595041851677131
20
56.56389503904883
42
0.10603544058550947
10
-50.469420481810907
20
65.359801022704318
10
-89.291077119601127
20
65.359801022704318
42
0.31529878887898466
10
-93.989540223530653
20
62.069901739332693
10
-105.203487168908
20
31.259835723946622
42
0.087488663525927157
10
-106.40963475318985
20
24.419432857433179
10
-106.40963475318985
20
13.685906396323178
42
0.30942136964675165
10
-103.21997533923781
20
9.0251482002237982
42
-0.060341045133343853
10
-47.336427134609814
20
-20.855841986448294
42
-0.061649924575526337
10
-34.103867748694441
20
-32.810402457885743
42
0.217810957995765
0
LINE
5
101
100
AcDbEntity
8
0
100
AcDbLine
10
-71.123916463360132
20
25.459946617832472
30
0
11
-75.570178326593805
21
13.243942547615715
31
0
0
LINE
5
102
100
AcDbEntity
8
0
100
AcDbLine
10
-28.352189971347251
20
31.893122574731514
30
0
11
-32.798451834580895
21
19.67711850451472
31
0
0
LINE
5
103
100
AcDbEntity
8
0
100
AcDbLine
10
-105.56226533034106
20
25.888394183002745
30
0
11
-93.346261260124322
21
21.442132319769058
31
0
0
LINE
5
104
100
AcDbEntity
8
0
100
AcDbLine
10
-33.287518034041959
20
-12.99725565480678
30
0
11
-40.744011706605505
21
-23.646232230563768
31
0
0
LINE
5
105
100
AcDbEntity
8
0
100
AcDbLine
10
-25.884452358955663
20
-19.278702806137392
30
0
11
-17.528213433030697
21
-29.23728056668395
31
0
0
LINE
5
106
100
AcDbEntity
8
0
100
AcDbLine
10
-26.588868385358417
20
-19.217074389421146
30
0
11
-36.540551745917007
21
-27.567528226858897
31
0
0
LINE
5
107
100
AcDbEntity
8
0
100
AcDbLine
10
-35.190138412861771
20
-2.916434476618337
30
0
11
-22.977212523934966
21
-7.3711535734390328
31
0
0
LINE
5
108
100
AcDbEntity
8
0
100
AcDbLine
10
-36.602180162633211
20
-28.271944253261623
30
0
11
-28.252835636696325
21
-38.236307102295513
31
0
0
ARC
5
109
100
AcDbEntity
8
0
100
AcDbCircle
10
-36.219157941073746
20
-27.950550448418383
30
0
40
0.50000100000003933
210
0
220
0
230
1
100
AcDbArc
50
129.99999999999488
51
219.99989999999673
0
ARC
5
110
100
AcDbEntity
8
0
100
AcDbCircle
10
-33.697094056186444
20
-12.710467436631278
30
0
40
0.50000099999998926
210
-0
220
0
230
1
100
AcDbArc
50
-34.999885409001202
51
54.99989999999481
0
ARC
5
111
100
AcDbEntity
8
0
100
AcDbCircle
10
-41.153587728750018
20
-23.359444012388195
30
0
40
0.50000099999994096
210
0
220
0
230
1
100
AcDbArc
50
235.00009999999483
51
324.99988540900011
0
CIRCLE
5
112
100
AcDbEntity
8
0
100
AcDbCircle
10
-16.509999999999955
20
-17.286936110695997
30
0
40
1.0000000000000004
210
0
220
0
230
1
0
LINE
5
113
100
AcDbEntity
8
0
100
AcDbLine
10
-24.541251883880626
20
27.803043004173489
30
0
11
-28.984401363810015
21
15.595590136805837
31
0
0
ARC
5
114
100
AcDbEntity
8
0
100
AcDbCircle
10
-17.911235654590183
20
-29.55867437152726
30
0
40
0.50000099999999925
210
-0
220
0
230
1
100
AcDbArc
50
-49.999885408999965
51
39.999900000009461
0
ARC
5
115
100
AcDbEntity
8
0
100
AcDbCircle
10
-22.806202452272146
20
-6.9013072630461654
30
0
40
0.50000099999996306
210
0
220
0
230
1
100
AcDbArc
50
250.00009999999904
51
339.99988540901461
0
LINE
5
116
100
AcDbEntity
8
0
100
AcDbLine
10
-17.589841849746904
20
-29.941696593086817
30
0
11
-27.548419610293571
21
-38.297935519011759
31
0
0
ARC
5
117
100
AcDbEntity
8
0
100
AcDbCircle
10
-27.869813415136839
20
-37.914913297452273
30
0
40
0.50000099999999015
210
0
220
0
230
1
100
AcDbArc
50
220.00009999999841
51
309.99988540900301
0
LINE
5
118
100
AcDbEntity
8
0
100
AcDbLine
10
-51.147172756761989
20
24.816705698045993
30
0
11
-55.593434619995648
21
12.600701627829237
31
0
0
LINE
5
119
100
AcDbEntity
8
0
100
AcDbLine
10
-52.084190334755192
20
-16.305153993570517
30
0
11
-41.440375946925542
21
-23.769020034532673
31
0
0
LINE
5
120
100
AcDbEntity
8
0
100
AcDbLine
10
-51.293791276229584
20
65.347136228817959
30
0
11
-55.736940756159008
21
53.139683361450345
31
0
0
LINE
5
121
100
AcDbEntity
8
0
100
AcDbLine
10
-106.20312171239686
20
25.589557944272627
30
0
11
-110.64630539434057
21
13.382011107642951
31
0
0
LINE
5
122
100
AcDbEntity
8
0
100
AcDbLine
10
-64.302869447764635
20
29.604987704605321
30
0
11
-68.746053129708358
21
17.397440867975572
31
0
0
LINE
5
123
100
AcDbEntity
8
0
100
AcDbLine
10
-68.447216890978254
20
16.756584485919813
30
0
11
-56.234291002051442
21
12.30186538909919
31
0
0
LINE
5
124
100
AcDbEntity
8
0
100
AcDbLine
10
-61.942643603196395
20
34.627752717288267
30
0
11
-49.729751916283874
21
30.172939651205439
31
0
0
LINE
5
125
100
AcDbEntity
8
0
100
AcDbLine
10
-47.371569366061614
20
19.109166557914602
30
0
11
-35.155565295844866
21
14.662904694680917
31
0
0
LINE
5
126
100
AcDbEntity
8
0
100
AcDbLine
10
-57.157473979941329
20
47.774898205441794
30
0
11
-44.941469909724596
21
43.328636342208071
31
0
0
LINE
5
127
100
AcDbEntity
8
0
100
AcDbLine
10
-84.27961315436275
20
30.2482286243918
30
0
11
-88.7227968363065
21
18.040681787762193
31
0
0
LINE
5
128
100
AcDbEntity
8
0
100
AcDbLine
10
-44.059282413767747
20
-4.8443977419233892
30
0
11
-33.410305838010935
21
-12.300891414486872
31
0
0
LINE
5
129
100
AcDbEntity
8
0
100
AcDbLine
10
-52.156773191331027
20
5.961927100499123
30
0
11
-39.943847302404201
21
1.5072080036783553
31
0
0
LINE
5
130
100
AcDbEntity
8
0
100
AcDbLine
10
-63.662013065708855
20
29.903823943335439
30
0
11
-51.446008995492079
21
25.457562080101681
31
0
0
LINE
5
131
100
AcDbEntity
8
0
100
AcDbLine
10
-55.438104517428862
20
52.498826979394586
30
0
11
-43.225212830516398
21
48.044013913311758
31
0
0
LINE
5
132
100
AcDbEntity
8
0
100
AcDbLine
10
-45.65219990354916
20
23.833095331867398
30
0
11
-33.439308216636682
21
19.378282265784602
31
0
0
LINE
5
133
100
AcDbEntity
8
0
100
AcDbLine
10
-93.047425021394176
20
20.80127593771337
30
0
11
-97.493686884627834
21
8.5852718674966138
31
0
0
ARC
5
134
100
AcDbEntity
8
0
100
AcDbCircle
10
-63.008366233805326
20
49.242530255266885
30
0
40
0.50000099999995995
210
0
220
0
230
1
100
AcDbArc
50
250.0000999999998
51
339.99988540900671
0
ARC
5
135
100
AcDbEntity
8
0
100
AcDbCircle
10
-51.985763119668185
20
6.4317734108919904
30
0
40
0.50000100000001191
210
0
220
0
230
1
100
AcDbArc
50
159.99999999999883
51
249.99989999999659
0
ARC
5
136
100
AcDbEntity
8
0
100
AcDbCircle
10
-71.59376277375307
20
25.630956689495292
30
0
40
0.50000099999999459
210
-0
220
0
230
1
100
AcDbArc
50
-19.999885408999287
51
69.9999000000047
0
ARC
5
137
100
AcDbEntity
8
0
100
AcDbCircle
10
-55.267094445766027
20
52.968673289787525
30
0
40
0.50000100000001568
210
0
220
0
230
1
100
AcDbArc
50
159.99999999999443
51
249.99989999999795
0
ARC
5
138
100
AcDbEntity
8
0
100
AcDbCircle
10
-56.063280930388601
20
12.771711699492128
30
0
40
0.50000100000003278
210
0
220
0
230
1
100
AcDbArc
50
250.00010000000108
51
339.99988540899818
0
ARC
5
139
100
AcDbEntity
8
0
100
AcDbCircle
10
-93.517271331787128
20
20.97228600937612
30
0
40
0.50000100000000303
210
-0
220
0
230
1
100
AcDbArc
50
-19.999885408998729
51
69.99989999999886
0
ARC
5
140
100
AcDbEntity
8
0
100
AcDbCircle
10
-68.276206819315405
20
17.226430796312822
30
0
40
0.50000099999999525
210
0
220
0
230
1
100
AcDbArc
50
159.99999999999798
51
249.99989999999582
0
LINE
5
141
100
AcDbEntity
8
0
100
AcDbLine
10
-83.638756772306962
20
30.547064863121918
30
0
11
-71.422752702090236
21
26.10080299988816
31
0
0
LINE
5
142
100
AcDbEntity
8
0
100
AcDbLine
10
-44.755646654087755
20
-4.9671855458923648
30
0
11
-52.20697813872416
21
-15.608789753250464
31
0
0
LINE
5
143
100
AcDbEntity
8
0
100
AcDbLine
10
-28.685565125079915
20
14.954733754750078
30
0
11
-16.47267343816744
21
10.499920688667286
31
0
0
LINE
5
144
100
AcDbEntity
8
0
100
AcDbLine
10
-103.84908643242278
20
30.595314520519352
30
0
11
-91.636160543495976
21
26.140595423698585
31
0
0
ARC
5
145
100
AcDbEntity
8
0
100
AcDbCircle
10
-110.17645908394762
20
13.211001035980059
30
0
40
0.50000100000001946
210
0
220
0
230
1
100
AcDbArc
50
159.99999999999037
51
249.99989999999454
0
ARC
5
146
100
AcDbEntity
8
0
100
AcDbCircle
10
-44.346070631943284
20
-5.253973764067867
30
0
40
0.50000100000000425
210
0
220
-0
230
1
100
AcDbArc
50
55.000099999998866
51
145.00000000000006
0
ARC
5
147
100
AcDbEntity
8
0
100
AcDbCircle
10
-51.797402116579676
20
-15.895577971426038
30
0
40
0.50000100000004033
210
0
220
0
230
1
100
AcDbArc
50
144.99999999999341
51
234.99990000000025
0
LINE
5
148
100
AcDbEntity
8
0
100
AcDbLine
10
-77.771646964975105
20
48.152109211509817
30
0
11
-82.214796444904493
21
35.944656344142274
31
0
0
LINE
5
149
100
AcDbEntity
8
0
100
AcDbLine
10
-110.34746915561047
20
12.741154725587192
30
0
11
-98.134543266683579
21
8.2864356287663536
31
0
0
CIRCLE
5
150
100
AcDbEntity
8
0
100
AcDbCircle
10
-78.354548855504788
20
61.169621430337457
30
0
40
0.99999999999999933
210
0
220
0
230
1
0
LINE
5
151
100
AcDbEntity
8
0
100
AcDbLine
10
-34.368129350251309
20
54.853367202987258
30
0
11
-22.152125280034536
21
50.407105339753535
31
0
0
ARC
5
152
100
AcDbEntity
8
0
100
AcDbCircle
10
-97.963533195020801
20
8.7562819391594342
30
0
40
0.50000099999997205
210
0
220
0
230
1
100
AcDbArc
50
250.00009999999676
51
339.99988540899227
0
LINE
5
153
100
AcDbEntity
8
0
100
AcDbLine
10
-39.153298973506374
20
41.706221714833696
30
0
11
-26.940407286593853
21
37.251408648750903
31
0
0
ARC
5
154
100
AcDbEntity
8
0
100
AcDbCircle
10
-16.301663366504599
20
10.969766999060225
30
0
40
0.50000099999996828
210
0
220
0
230
1
100
AcDbArc
50
250.00009999999716
51
339.99988540900608
0
CIRCLE
5
155
100
AcDbEntity
8
0
100
AcDbCircle
10
-91.179719615090818
20
11.290341931708701
30
0
40
0.99999999999999933
210
0
220
0
230
1
0
LINE
5
156
100
AcDbEntity
8
0
100
AcDbLine
10
-80.050659575018855
20
56.509595527577652
30
0
11
-84.496921438252528
21
44.293591457360932
31
0
0
ARC
5
157
100
AcDbEntity
8
0
100
AcDbCircle
10
-88.252950525913519
20
17.86967171609923
30
0
40
0.50000100000004521
210
0
220
0
230
1
100
AcDbArc
50
160.00000000000023
51
249.99989999999147
0
LINE
5
158
100
AcDbEntity
8
0
100
AcDbLine
10
-17.386639127654728
20
45.939801708761365
30
0
11
-5.170635057438008
21
41.493539845527714
31
0
0
LINE
5
159
100
AcDbEntity
8
0
100
AcDbLine
10
-81.915960206174375
20
35.30379996208648
30
0
11
-69.703068519261933
21
30.848986896003652
31
0
0
LINE
5
160
100
AcDbEntity
8
0
100
AcDbLine
10
-88.423960597576396
20
17.399825405706363
30
0
11
-76.211034708649549
21
12.945106308885597
31
0
0
LINE
5
161
100
AcDbEntity
8
0
100
AcDbLine
10
-75.392267992380624
20
53.22749701095681
30
0
11
-63.179376305468153
21
48.772683944873982
31
0
0
LINE
5
162
100
AcDbEntity
8
0
100
AcDbLine
10
-77.130790582919332
20
48.450945450239935
30
0
11
-64.914786512702591
21
44.004683587006284
31
0
0
ARC
5
163
100
AcDbEntity
8
0
100
AcDbCircle
10
-47.542579437724449
20
18.639320247521734
30
0
40
0.50000099999996306
210
0
220
-0
230
1
100
AcDbArc
50
70.000099999999065
51
159.99999999999798
0
LINE
5
164
100
AcDbEntity
8
0
100
AcDbLine
10
-40.867030280294109
20
36.98024082002096
30
0
11
-28.651026210077333
21
32.533978956787237
31
0
0
ARC
5
165
100
AcDbEntity
8
0
100
AcDbCircle
10
-22.323135351697367
20
49.937259029360561
30
0
40
0.50000099999995362
210
-0
220
0
230
1
100
AcDbArc
50
-19.999885408992164
51
69.999900000001787
0
ARC
5
166
100
AcDbEntity
8
0
100
AcDbCircle
10
-28.514555053417084
20
15.424580065143017
30
0
40
0.50000100000003611
210
0
220
0
230
1
100
AcDbArc
50
159.99999999999116
51
249.99990000000244
0
ARC
5
167
100
AcDbEntity
8
0
100
AcDbCircle
10
-61.771633531533567
20
35.097599027681206
30
0
40
0.50000100000000347
210
0
220
0
230
1
100
AcDbArc
50
159.99999999999827
51
249.99990000000085
0
ARC
5
168
100
AcDbEntity
8
0
100
AcDbCircle
10
-83.809766843969825
20
30.077218552728979
30
0
40
0.50000099999997205
210
0
220
-0
230
1
100
AcDbArc
50
70.000099999995228
51
160.00000000000506
0
ARC
5
169
100
AcDbEntity
8
0
100
AcDbCircle
10
-9.7879069923345074
20
28.807689464918056
30
0
40
0.50000099999996372
210
0
220
0
230
1
100
AcDbArc
50
250.0000999999987
51
339.99988540899869
0
LINE
5
170
100
AcDbEntity
8
0
100
AcDbLine
10
-34.856729057114762
20
14.022048312625229
30
0
11
-39.302990920348428
21
1.8060442424084733
31
0
0
LINE
5
171
100
AcDbEntity
8
0
100
AcDbLine
10
-93.206356266021515
20
61.297877534137015
30
0
11
-97.649505745950918
21
49.090424666769401
31
0
0
ARC
5
172
100
AcDbEntity
8
0
100
AcDbCircle
10
-92.73650995562852
20
61.126867462474159
30
0
40
0.50000099999998115
210
0
220
-0
230
1
100
AcDbArc
50
70.000100000004267
51
160.00000000000293
0
ARC
5
173
100
AcDbEntity
8
0
100
AcDbCircle
10
-38.60794089561989
20
60.729864293921452
30
0
40
0.50000100000000303
210
-0
220
0
230
1
100
AcDbArc
50
-19.999885408998981
51
69.999900000001645
0
ARC
5
174
100
AcDbEntity
8
0
100
AcDbCircle
10
-58.562104370571653
20
61.458534325483711
30
0
40
0.50000100000002734
210
-0
220
0
230
1
100
AcDbArc
50
-19.999885409006669
51
69.999899999998107
0
LINE
5
175
100
AcDbEntity
8
0
100
AcDbLine
10
-23.90039550182486
20
28.101879242903678
30
0
11
-11.684391431608109
21
23.65561737966992
31
0
0
ARC
5
176
100
AcDbEntity
8
0
100
AcDbCircle
10
-5.3416451291008276
20
41.023693535134775
30
0
40
0.50000100000000891
210
-0
220
0
230
1
100
AcDbArc
50
-19.999885409002953
51
69.999900000000395
0
LINE
5
177
100
AcDbEntity
8
0
100
AcDbLine
10
-70.607098369125566
20
66.374642499110266
30
0
11
-58.391094298908833
21
61.928380635876614
31
0
0
LINE
5
178
100
AcDbEntity
8
0
100
AcDbLine
10
-97.350669507220772
20
48.449568284713607
30
0
11
-85.137777820308315
21
43.994755218630779
31
0
0
LINE
5
179
100
AcDbEntity
8
0
100
AcDbLine
10
-58.0922580601787
20
61.28752425382082
30
0
11
-62.538519923412366
21
49.071520183604065
31
0
0
LINE
5
180
100
AcDbEntity
8
0
100
AcDbLine
10
-4.8717988187078776
20
40.852683463471955
30
0
11
-9.3180606819415406
21
28.636679393255164
31
0
0
LINE
5
181
100
AcDbEntity
8
0
100
AcDbLine
10
-99.063882607153431
20
43.742553977934975
30
0
11
-86.847878536936619
21
39.296292114701288
31
0
0
ARC
5
182
100
AcDbEntity
8
0
100
AcDbCircle
10
-65.085796584365397
20
43.534837276613345
30
0
40
0.50000100000000303
210
-0
220
0
230
1
100
AcDbArc
50
-19.999885408998729
51
69.99990000000318
0
ARC
5
183
100
AcDbEntity
8
0
100
AcDbCircle
10
-80.520505885411765
20
56.680605599240472
30
0
40
0.50000099999998637
210
-0
220
0
230
1
100
AcDbArc
50
-19.999885408999287
51
69.99990000000318
0
LINE
5
184
100
AcDbEntity
8
0
100
AcDbLine
10
-92.565499883965728
20
61.596713772867133
30
0
11
-80.349495813748945
21
57.150451909633411
31
0
0
ARC
5
185
100
AcDbEntity
8
0
100
AcDbCircle
10
-43.054202758853563
20
48.513860223704732
30
0
40
0.50000099999999337
210
0
220
0
230
1
100
AcDbArc
50
250.00010000000123
51
339.99988540899966
0
ARC
5
186
100
AcDbEntity
8
0
100
AcDbCircle
10
-84.966767748645424
20
44.464601529023753
30
0
40
0.50000099999999936
210
0
220
0
230
1
100
AcDbArc
50
250.00009999999816
51
339.99988540900154
0
LINE
5
187
100
AcDbEntity
8
0
100
AcDbLine
10
-38.138094585226945
20
60.558854222258631
30
0
11
-42.584356448460596
21
48.342850152041841
31
0
0
LINE
5
188
100
AcDbEntity
8
0
100
AcDbLine
10
-22.17180875090979
20
32.792656220607981
30
0
11
-9.9589170639973386
21
28.337843154525117
31
0
0
LINE
5
189
100
AcDbEntity
8
0
100
AcDbLine
10
-18.027495509710512
20
45.640965470031283
30
0
11
-22.470644989639919
21
33.433512602663633
31
0
0
LINE
5
190
100
AcDbEntity
8
0
100
AcDbLine
10
-57.798330361997103
20
47.47606196671164
30
0
11
-62.241479841926505
21
35.268609099344026
31
0
0
CIRCLE
5
191
100
AcDbEntity
8
0
100
AcDbCircle
10
-11.509999999999994
20
47.142398210202757
30
0
40
1.0000000000000009
210
0
220
0
230
1
0
ARC
5
192
100
AcDbEntity
8
0
100
AcDbCircle
10
-24.071405573487688
20
27.632032932510668
30
0
40
0.50000099999996606
210
0
220
-0
230
1
100
AcDbArc
50
70.000099999998284
51
160.00000000000566
0
LINE
5
193
100
AcDbEntity
8
0
100
AcDbLine
10
-41.50788666234989
20
36.681404581290771
30
0
11
-45.951036142279307
21
24.473951713923228
31
0
0
CIRCLE
5
194
100
AcDbEntity
8
0
100
AcDbCircle
10
-11.510000000000005
20
52.003690338231635
30
0
40
1.0000000000000027
210
0
220
0
230
1
0
LINE
5
195
100
AcDbEntity
8
0
100
AcDbLine
10
-21.853289041304436
20
49.766248957697705
30
0
11
-26.299550904538105
21
37.550244887481021
31
0
0
ARC
5
196
100
AcDbEntity
8
0
100
AcDbCircle
10
-91.465150471833141
20
26.610441734091594
30
0
40
0.50000100000002057
210
0
220
0
230
1
100
AcDbArc
50
250.00010000000415
51
339.99988540899875
0
ARC
5
197
100
AcDbEntity
8
0
100
AcDbCircle
10
-87.01888860859944
20
38.826445804308314
30
0
40
0.50000099999998637
210
-0
220
0
230
1
100
AcDbArc
50
-19.999885408999287
51
69.99990000000318
0
ARC
5
198
100
AcDbEntity
8
0
100
AcDbCircle
10
-77.301800654582152
20
47.981099139846997
30
0
40
0.50000099999999337
210
0
220
-0
230
1
100
AcDbArc
50
70.000100000001211
51
160.00000000000293
0
LINE
5
199
100
AcDbEntity
8
0
100
AcDbLine
10
-64.615950273972459
20
43.363827204950525
30
0
11
-69.062212137206132
21
31.147823134733841
31
0
0
ARC
5
200
100
AcDbEntity
8
0
100
AcDbCircle
10
-99.234892678816266
20
43.272707667542001
30
0
40
0.50000100000000547
210
0
220
-0
230
1
100
AcDbArc
50
70.000099999996621
51
160.00000000000071
0
LINE
5
201
100
AcDbEntity
8
0
100
AcDbLine
10
-48.012425748117415
20
18.810330319184555
30
0
11
-52.455609430061145
21
6.6027834825548108
31
0
0
LINE
5
202
100
AcDbEntity
8
0
100
AcDbLine
10
-50.652934894173811
20
65.64597246754812
30
0
11
-38.436930823957056
21
61.199710604314426
31
0
0
ARC
5
203
100
AcDbEntity
8
0
100
AcDbCircle
10
-17.557649199317559
20
45.469955398368462
30
0
40
0.5000009999999645
210
0
220
-0
230
1
100
AcDbArc
50
70.000099999998284
51
159.99999999999812
0
ARC
5
204
100
AcDbEntity
8
0
100
AcDbCircle
10
-33.268298144973841
20
19.848128576177611
30
0
40
0.50000100000002978
210
0
220
0
230
1
100
AcDbArc
50
250.00010000000108
51
339.99988540899875
0
LINE
5
205
100
AcDbEntity
8
0
100
AcDbLine
10
-71.247954751181354
20
66.075806260380176
30
0
11
-75.691104231110756
21
53.868353393012605
31
0
0
LINE
5
206
100
AcDbEntity
8
0
100
AcDbLine
10
-44.642633670994485
20
42.687779960152348
30
0
11
-49.088895534228108
21
30.471775889935628
31
0
0
ARC
5
207
100
AcDbEntity
8
0
100
AcDbCircle
10
-22.000798679246962
20
33.262502531000777
30
0
40
0.50000100000000736
210
0
220
0
230
1
100
AcDbArc
50
159.99999999999417
51
249.99989999999821
0
ARC
5
208
100
AcDbEntity
8
0
100
AcDbCircle
10
-103.67807636075993
20
31.065160830912362
30
0
40
0.50000100000004521
210
0
220
0
230
1
100
AcDbArc
50
159.99999999999969
51
249.9998999999986
0
ARC
5
209
100
AcDbEntity
8
0
100
AcDbCircle
10
-97.179659435557937
20
48.919414595106581
30
0
40
0.50000100000002856
210
0
220
0
230
1
100
AcDbArc
50
159.99999999999912
51
249.9998999999986
0
ARC
5
210
100
AcDbEntity
8
0
100
AcDbCircle
10
-35.01912834119895
20
-2.4465881662253275
30
0
40
0.50000100000000347
210
0
220
0
230
1
100
AcDbArc
50
159.99999999999827
51
249.99990000000594
0
ARC
5
211
100
AcDbEntity
8
0
100
AcDbCircle
10
-50.823944965836638
20
65.176126157155139
30
0
40
0.50000099999996306
210
0
220
-0
230
1
100
AcDbArc
50
70.000099999999065
51
160.00000000000566
0
ARC
5
212
100
AcDbEntity
8
0
100
AcDbCircle
10
-76.040024636986743
20
13.414952619278536
30
0
40
0.50000099999995995
210
0
220
0
230
1
100
AcDbArc
50
250.0000999999998
51
339.99988540900586
0
ARC
5
213
100
AcDbEntity
8
0
100
AcDbCircle
10
-105.7332754020039
20
25.418547872609807
30
0
40
0.50000099999996606
210
0
220
-0
230
1
100
AcDbArc
50
70.000099999998284
51
160.00000000000566
0
ARC
5
214
100
AcDbEntity
8
0
100
AcDbCircle
10
-70.778108440788372
20
65.904796188717327
30
0
40
0.50000100000002667
210
0
220
-0
230
1
100
AcDbArc
50
70.000100000002604
51
160.0000000000027
0
LINE
5
215
100
AcDbEntity
8
0
100
AcDbLine
10
-99.704738989209162
20
43.443717739204821
30
0
11
-104.14792267115287
21
31.236170902575147
31
0
0
ARC
5
216
100
AcDbEntity
8
0
100
AcDbCircle
10
-81.744950134511555
20
35.773646272479454
30
0
40
0.50000100000001191
210
0
220
0
230
1
100
AcDbArc
50
159.99999999999852
51
249.99990000000471
0
ARC
5
217
100
AcDbEntity
8
0
100
AcDbCircle
10
-45.112479981387416
20
42.858790031815133
30
0
40
0.50000099999999092
210
-0
220
0
230
1
100
AcDbArc
50
-19.99988540899486
51
69.999900000004587
0
ARC
5
218
100
AcDbEntity
8
0
100
AcDbCircle
10
-57.328484051604171
20
47.30505189504882
30
0
40
0.50000100000003889
210
0
220
-0
230
1
100
AcDbArc
50
70.000099999998781
51
160.00000000000236
0
ARC
5
219
100
AcDbEntity
8
0
100
AcDbCircle
10
-28.822036281740182
20
32.06413264639437
30
0
40
0.50000099999999847
210
-0
220
0
230
1
100
AcDbArc
50
-19.999885409003411
51
69.999900000000267
0
LINE
5
220
100
AcDbEntity
8
0
100
AcDbLine
10
-17.89009427864552
20
5.1436867355078402
30
0
11
-22.336356141879186
21
-7.0723173347089858
31
0
0
ARC
5
221
100
AcDbEntity
8
0
100
AcDbCircle
10
-30.575944659255203
20
9.7609586704042766
30
0
40
0.50000100000002978
210
0
220
-0
230
1
100
AcDbArc
50
70.000100000001453
51
159.99999999999105
0
ARC
5
222
100
AcDbEntity
8
0
100
AcDbCircle
10
-18.359940589038473
20
5.3146968071707317
30
0
40
0.50000099999999892
210
-0
220
0
230
1
100
AcDbArc
50
-19.999885408999138
51
69.999899999998476
0
ARC
5
223
100
AcDbEntity
8
0
100
AcDbCircle
10
-63.833023137371683
20
29.433977632942501
30
0
40
0.50000100000002667
210
0
220
-0
230
1
100
AcDbArc
50
70.000100000002604
51
159.99999999999912
0
ARC
5
224
100
AcDbEntity
8
0
100
AcDbCircle
10
-49.558741844621075
20
30.642785961598449
30
0
40
0.50000100000003278
210
0
220
0
230
1
100
AcDbArc
50
250.00010000000032
51
339.99988540899938
0
ARC
5
225
100
AcDbEntity
8
0
100
AcDbCircle
10
-26.769397214931033
20
37.721254959143842
30
0
40
0.50000099999999936
210
0
220
0
230
1
100
AcDbArc
50
250.00009999999889
51
339.9998854090021
0
ARC
5
226
100
AcDbEntity
8
0
100
AcDbCircle
10
-51.617019067154921
20
24.987715769708885
30
0
40
0.50000100000001058
210
-0
220
0
230
1
100
AcDbArc
50
-19.999885409007227
51
69.99989999999886
0
ARC
5
227
100
AcDbEntity
8
0
100
AcDbCircle
10
-69.53205844759907
20
31.318833206396626
30
0
40
0.50000099999999936
210
0
220
0
230
1
100
AcDbArc
50
250.00009999999966
51
339.99988540900318
0
ARC
5
228
100
AcDbEntity
8
0
100
AcDbCircle
10
-38.982288901843546
20
42.17606802522667
30
0
40
0.50000099999998304
210
0
220
0
230
1
100
AcDbArc
50
160.00000000000182
51
249.99990000000258
0
LINE
5
229
100
AcDbEntity
8
0
100
AcDbLine
10
-35.008985732307103
20
54.554530964257069
30
0
11
-39.452135212236492
21
42.34707809688949
31
0
0
ARC
5
230
100
AcDbEntity
8
0
100
AcDbCircle
10
-39.772837230741374
20
1.9770543140712937
30
0
40
0.50000100000002368
210
0
220
0
230
1
100
AcDbArc
50
250.00010000000336
51
339.99988540899119
0
ARC
5
231
100
AcDbEntity
8
0
100
AcDbCircle
10
-35.326575367507715
20
14.193058384288049
30
0
40
0.50000100000003567
210
-0
220
0
230
1
100
AcDbArc
50
-19.999885409006108
51
69.999899999993787
0
LINE
5
232
100
AcDbEntity
8
0
100
AcDbLine
10
-86.54904229820653
20
38.655435732645529
30
0
11
-90.995304161440174
21
26.439431662428703
31
0
0
ARC
5
233
100
AcDbEntity
8
0
100
AcDbCircle
10
-45.48118983188634
20
24.302941642260407
30
0
40
0.50000100000002778
210
0
220
0
230
1
100
AcDbArc
50
159.99999999999091
51
249.99990000000471
0
LINE
5
234
100
AcDbEntity
8
0
100
AcDbLine
10
-31.045790969648142
20
9.931968742067097
30
0
11
-35.488974651591874
21
-2.2755780945625781
31
0
0
ARC
5
235
100
AcDbEntity
8
0
100
AcDbCircle
10
-41.038040351956937
20
36.510394509627986
30
0
40
0.50000100000002978
210
0
220
-0
230
1
100
AcDbArc
50
70.000100000001851
51
159.99999999999827
0
ARC
5
236
100
AcDbEntity
8
0
100
AcDbCircle
10
-11.855401503270951
20
23.185771069276981
30
0
40
0.50000100000000514
210
-0
220
0
230
1
100
AcDbArc
50
-19.999885408998729
51
69.999899999998476
0
ARC
5
237
100
AcDbEntity
8
0
100
AcDbCircle
10
-34.539139421914136
20
54.383520892594248
30
0
40
0.5000010000000692
210
0
220
-0
230
1
100
AcDbArc
50
70.000100000001709
51
159.99999999999883
0
ARC
5
238
100
AcDbEntity
8
0
100
AcDbCircle
10
-75.22125792071779
20
53.697343321349784
30
0
40
0.50000099999997094
210
0
220
0
230
1
100
AcDbArc
50
160.00000000000566
51
249.99990000000167
0
LINE
5
239
100
AcDbEntity
8
0
100
AcDbLine
10
-30.404934587592372
20
10.230804980797215
30
0
11
-18.188930517375624
21
5.7845431175635991
31
0
0
LINE
5
240
100
AcDbEntity
8
0
100
AcDbLine
10
-11.385555192877991
20
23.014760997614161
30
0
11
-15.831817056111653
21
10.798756927397404
31
0
0
ARC
5
241
100
AcDbEntity
8
0
100
AcDbCircle
10
-26.26747458051512
20
-19.600096610980632
30
0
40
0.50000100000002223
210
0
220
-0
230
1
100
AcDbArc
50
40.000100000006256
51
130.00000000000293
0
CIRCLE
5
242
100
AcDbEntity
8
0
100
AcDbCircle
10
7.6099999999999994
20
9.100000000000005
30
0
40
0.875
210
0
220
0
230
1
0
LWPOLYLINE
5
243
100
AcDbEntity
8
0
100
AcDbPolyline
90
4
70
1
43
0.0
10
-8.8900000000000006
20
-12.5
10
-8.8900000000000006
20
20.500000000000004
10
8.8900000000000006
20
20.500000000000004
10
8.8900000000000006
20
-12.5
0
CIRCLE
5
244
100
AcDbEntity
8
0
100
AcDbCircle
10
7.6099999999999994
20
-3.5999999999999996
30
0
40
0.875
210
0
220
0
230
1
0
CIRCLE
5
245
100
AcDbEntity
8
0
100
AcDbCircle
10
7.6099999999999994
20
1.4800000000000002
30
0
40
0.875
210
0
220
0
230
1
0
CIRCLE
5
246
100
AcDbEntity
8
0
100
AcDbCircle
10
-7.6099999999999994
20
1.4800000000000002
30
0
40
0.875
210
0
220
0
230
1
0
CIRCLE
5
247
100
AcDbEntity
8
0
100
AcDbCircle
10
-7.6099999999999994
20
6.5600000000000005
30
0
40
0.875
210
0
220
0
230
1
0
CIRCLE
5
248
100
AcDbEntity
8
0
100
AcDbCircle
10
7.6099999999999994
20
-6.1400000000000041
30
0
40
0.875
210
0
220
0
230
1
0
CIRCLE
5
249
100
AcDbEntity
8
0
100
AcDbCircle
10
7.6099999999999994
20
4.019999999999996
30
0
40
0.875
210
0
220
0
230
1
0
CIRCLE
5
250
100
AcDbEntity
8
0
100
AcDbCircle
10
7.6099999999999994
20
-1.0600000000000043
30
0
40
0.875
210
0
220
0
230
1
0
CIRCLE
5
251
100
AcDbEntity
8
0
100
AcDbCircle
10
7.6099999999999994
20
16.720000000000002
30
0
40
0.875
210
0
220
0
230
1
0
CIRCLE
5
252
100
AcDbEntity
8
0
100
AcDbCircle
10
-7.6099999999999994
20
4.019999999999996
30
0
40
0.875
210
0
220
0
230
1
0
CIRCLE
5
253
100
AcDbEntity
8
0
100
AcDbCircle
10
-7.6099999999999994
20
-1.0600000000000043
30
0
40
0.875
210
0
220
0
230
1
0
CIRCLE
5
254
100
AcDbEntity
8
0
100
AcDbCircle
10
-7.6099999999999994
20
-6.1400000000000041
30
0
40
0.875
210
0
220
0
230
1
0
CIRCLE
5
255
100
AcDbEntity
8
0
100
AcDbCircle
10
-7.6099999999999994
20
-3.5999999999999996
30
0
40
0.875
210
0
220
0
230
1
0
CIRCLE
5
256
100
AcDbEntity
8
0
100
AcDbCircle
10
-7.6099999999999994
20
9.100000000000005
30
0
40
0.875
210
0
220
0
230
1
0
CIRCLE
5
257
100
AcDbEntity
8
0
100
AcDbCircle
10
-7.6099999999999994
20
14.179999999999996
30
0
40
0.875
210
0
220
0
230
1
0
CIRCLE
5
258
100
AcDbEntity
8
0
100
AcDbCircle
10
7.6099999999999994
20
-8.6799999999999997
30
0
40
0.875
210
0
220
0
230
1
0
CIRCLE
5
259
100
AcDbEntity
8
0
100
AcDbCircle
10
7.6099999999999994
20
6.5600000000000005
30
0
40
0.875
210
0
220
0
230
1
0
CIRCLE
5
260
100
AcDbEntity
8
0
100
AcDbCircle
10
-7.6099999999999994
20
11.640000000000001
30
0
40
0.875
210
0
220
0
230
1
0
CIRCLE
5
261
100
AcDbEntity
8
0
100
AcDbCircle
10
7.6099999999999994
20
14.179999999999996
30
0
40
0.875
210
0
220
0
230
1
0
CIRCLE
5
262
100
AcDbEntity
8
0
100
AcDbCircle
10
-7.6099999999999994
20
-8.6799999999999997
30
0
40
0.875
210
0
220
0
230
1
0
CIRCLE
5
263
100
AcDbEntity
8
0
100
AcDbCircle
10
-7.6099999999999994
20
16.720000000000002
30
0
40
0.875
210
0
220
0
230
1
0
CIRCLE
5
264
100
AcDbEntity
8
0
100
AcDbCircle
10
-7.6099999999999994
20
-11.220000000000002
30
0
40
0.875
210
0
220
0
230
1
0
CIRCLE
5
265
100
AcDbEntity
8
0
100
AcDbCircle
10
7.6099999999999994
20
11.640000000000001
30
0
40
0.875
210
0
220
0
230
1
0
CIRCLE
5
266
100
AcDbEntity
8
0
100
AcDbCircle
10
7.6099999999999994
20
-11.220000000000002
30
0
40
0.875
210
0
220
0
230
1
0
ENDSEC
0
SECTION
2
OBJECTS
0
DICTIONARY
5
C
100
AcDbDictionary
3
ACAD_GROUP
350
D
3
ACAD_MLINESTYLE
350
17
0
DICTIONARY
5
D
100
AcDbDictionary
0
DICTIONARY
5
1A
330
C
100
AcDbDictionary
0
DICTIONARY
5
17
100
AcDbDictionary
0
ENDSEC
0
EOF
